PathFileType	4	(X/Y/Z)	7_coords_data.trc
DataRate	CameraRate	NumFrames	NumMarkers	Units	OrigDataRate	OrigDataStartFrame	OrigNumFrames
30.0	30.0	9	21	m	30.0	21	62
Frame#	Time	THUMB_TIP	THUMB_IP	THUMB_MCP	THUMB_CMC	INDEX_TIP	INDEX_DIP	INDEX_PIP	INDEX_MCP	MIDDLE_TIP	MIDDLE_DIP	MIDDLE_PIP	MIDDLE_MCP	RING_TIP	RING_DIP	RING_PIP	RING_MCP	PINKY_TIP	PINKY_DIP	PINKY_PIP	PINKY_MCP	WRIST
X1	Y1	Z1	X2	Y2	Z2	X3	Y3	Z3	X4	Y4	Z4	X5	Y5	Z5	X6	Y6	Z6	X7	Y7	Z7	X8	Y8	Z8	X9	Y9	Z9	X10	Y10	Z10	X11	Y11	Z11	X12	Y12	Z12	X13	Y13	Z13	X14	Y14	Z14	X15	Y15	Z15	X16	Y16	Z16	X17	Y17	Z17	X18	Y18	Z18	X19	Y19	Z19	X20	Y20	Z20	X21	Y21	Z21
20	0.6666666666666666	-0.047937000274658206	-0.06056019973754883	0.9853389892578125	-0.038231300354003905	-0.03948759841918945	0.99972802734375	-0.036857799530029295	-0.02433009910583496	1.0245	-0.03734669876098633	0.006120709896087645	1.045280029296875	-0.027606700897216795	0.0008317430019378661	1.014510009765625	-0.011447099685668946	0.005485859870910644	1.0050800170898437	-0.009610380172729492	0.008197019577026367	0.9822960205078125	-0.046919200897216795	0.001298310041427612	0.9874429931640625	-0.02462339973449707	0.015824399948120117	1.0231300048828125	-0.01340369987487793	0.022459400177001952	1.01575	-0.008082050323486328	0.03001580047607422	0.9910570068359374	-0.048088199615478514	0.025723400115966796	0.985218994140625	-0.03247510147094727	0.029146699905395507	1.031300048828125	-0.018744699478149413	0.03769940185546875	1.02422998046875	-0.013040900230407715	0.04824100112915039	1.0036099853515625	-0.050404800415039065	0.046012100219726564	0.994344970703125	-0.03566230010986328	0.04283890151977539	1.03752001953125	-0.022365900039672853	0.05099959945678711	1.0313199462890625	-0.020542200088500977	0.060699798583984374	1.0163800048828124	-0.05014950180053711	0.06137779998779297	1.0079199829101562	-0.059293598175048826	0.02952939987182617	1.060699951171875
21	0.7	-0.04768170166015625	-0.060455398559570314	0.9855230102539062	-0.03797829818725586	-0.039398998260498044	1.000010009765625	-0.03670619964599609	-0.024263799667358397	1.02477001953125	-0.037290401458740234	0.006105380058288574	1.0455400390625	-0.027618799209594726	0.0008499180078506471	1.0149400024414061	-0.01139579963684082	0.005515450000762939	1.0054500122070313	-0.00936303997039795	0.008180620193481446	0.9827899780273438	-0.04673160171508789	0.001307669997215271	0.987708984375	-0.024453100204467774	0.015916500091552734	1.0233900146484376	-0.01332670021057129	0.02246809959411621	1.0161699829101563	-0.008005049705505371	0.030064699172973632	0.9913099975585937	-0.04797389984130859	0.025727399826049803	0.9855869750976562	-0.032688899993896486	0.028905500411987306	1.0316400146484375	-0.018649599075317384	0.03769660186767578	1.02456005859375	-0.012900899887084961	0.04822940063476563	1.0040999755859374	-0.0503109016418457	0.046022201538085936	0.9945150146484375	-0.03560910034179687	0.04269430160522461	1.0373599853515625	-0.022247100830078127	0.05099700164794922	1.0315799560546874	-0.02045400047302246	0.060724700927734375	1.01675	-0.050045398712158205	0.061391201019287106	1.0080999755859374	-0.05929790115356445	0.02956089973449707	1.06102001953125
22	0.7333333333333333	-0.047372100830078125	-0.06049430084228516	0.9857670288085938	-0.037726600646972655	-0.03943939971923828	1.00022998046875	-0.036593700408935545	-0.0242810001373291	1.0250699462890625	-0.037229000091552736	0.0060958900451660155	1.0458499755859374	-0.02745289993286133	0.000841850996017456	1.0152000122070313	-0.011343000411987304	0.005452089786529541	1.00575	-0.00919223976135254	0.008100740432739258	0.9831099853515625	-0.04659120178222656	0.001252810001373291	0.987947021484375	-0.02431489944458008	0.01589859962463379	1.0236799926757814	-0.013208999633789062	0.022442699432373047	1.0164099731445313	-0.00786426019668579	0.029931900024414062	0.9912059936523437	-0.04786249923706055	0.025661800384521486	0.985791015625	-0.03255350112915039	0.028902200698852538	1.0319599609375	-0.018558300018310547	0.037683601379394534	1.024800048828125	-0.012847100257873535	0.04825400161743164	1.0041699829101562	-0.05020339965820313	0.045952598571777345	0.9946939697265625	-0.03570619964599609	0.042596298217773436	1.0376500244140625	-0.0222406005859375	0.050972400665283205	1.0319200439453124	-0.020393800735473634	0.06069720077514648	1.01702001953125	-0.04996699905395508	0.0613223991394043	1.00827001953125	-0.05925960159301758	0.029525800704956053	1.061219970703125
23	0.7666666666666667	-0.04707360076904297	-0.06039860153198242	0.9859000244140625	-0.037462100982666016	-0.039355701446533206	1.0004000244140625	-0.03637829971313476	-0.024285499572753905	1.025219970703125	-0.03708380126953125	0.006062329769134521	1.0460400390625	-0.02742289924621582	0.0007447760105133051	1.0153800048828125	-0.011152000427246093	0.005444719791412353	1.0061099853515625	-0.00899176025390625	0.008158490180969239	0.9834669799804687	-0.04635300064086914	0.001214100003242492	0.9881820068359375	-0.024218700408935548	0.015858799934387206	1.0241099853515625	-0.013067399978637696	0.022462400436401367	1.016739990234375	-0.007660560131072998	0.02996910095214844	0.9915919799804688	-0.04756209945678711	0.025618999481201173	0.9860549926757812	-0.032527900695800784	0.028872800827026368	1.03218994140625	-0.01844420051574707	0.037672901153564455	1.0251800537109375	-0.012617600440979005	0.04815710067749023	1.00427001953125	-0.05004380035400391	0.045967601776123045	0.9950380249023437	-0.03536660003662109	0.04281259918212891	1.0378299560546875	-0.02215480041503906	0.05093949890136719	1.032280029296875	-0.020309799194335936	0.06071239852905273	1.01725	-0.0499281005859375	0.06131900024414062	1.0086900024414063	-0.05925329971313477	0.02934749984741211	1.061530029296875
24	0.8	-0.046933498382568356	-0.06026670074462891	0.9860380249023437	-0.03726259994506836	-0.03923809814453125	1.0005	-0.03621160125732422	-0.024195199966430665	1.0253800048828126	-0.036901500701904295	0.0061084098815917965	1.04622998046875	-0.027122400283813478	0.0007652059793472291	1.015530029296875	-0.010930800437927246	0.005451640129089355	1.0064199829101563	-0.008742670059204101	0.00813623046875	0.9839409790039062	-0.046149101257324215	0.001244400024414062	0.988405029296875	-0.02418519973754883	0.01582680034637451	1.02427001953125	-0.012897299766540528	0.022482900619506835	1.0169400024414061	-0.0075370402336120594	0.030027999877929687	0.9922529907226563	-0.04744820022583008	0.02562120056152344	0.9862069702148437	-0.032240501403808595	0.028988800048828124	1.0322900390625	-0.018305500030517577	0.03773669815063477	1.0253299560546876	-0.012522899627685546	0.0482322998046875	1.00475	-0.049905200958251954	0.04595700073242188	0.9952880249023438	-0.03544680023193359	0.04283470153808594	1.038010009765625	-0.021957000732421874	0.05099570083618164	1.0322900390625	-0.020216100692749022	0.06074570083618164	1.01747998046875	-0.04979040145874023	0.06131169891357422	1.0089199829101563	-0.05909159851074219	0.02937750053405762	1.0615799560546875
25	0.8333333333333334	-0.04679330062866211	-0.06026950073242188	0.9863060302734376	-0.037074798583984374	-0.039264598846435544	1.0007000122070313	-0.03604010009765625	-0.024204999923706054	1.0255400390625	-0.036757598876953124	0.006105790138244629	1.0463800048828125	-0.026920400619506835	0.000804776012897491	1.0158599853515624	-0.010748000144958495	0.005474689960479736	1.0068499755859375	-0.008576860427856445	0.008109430313110351	0.9840789794921875	-0.04593769836425781	0.001241060018539428	0.9885910034179688	-0.023957799911499024	0.01590139961242676	1.0246099853515624	-0.012697699546813965	0.022486600875854492	1.017219970703125	-0.007347300052642823	0.030017499923706056	0.9925059814453125	-0.04723139953613281	0.02560890007019043	0.9864340209960938	-0.032185901641845704	0.028928699493408202	1.032530029296875	-0.018119400024414062	0.03772499847412109	1.0255400390625	-0.012335200309753418	0.04822060012817383	1.0048900146484374	-0.04971989822387695	0.045952999114990234	0.995469970703125	-0.035053699493408204	0.04275239944458008	1.0380400390625	-0.02177790069580078	0.05094340133666992	1.03281005859375	-0.020057699203491212	0.060758899688720704	1.017760009765625	-0.049581401824951174	0.06131760025024414	1.0090499877929688	-0.058961101531982425	0.02937739944458008	1.0616600341796876
26	0.8666666666666667	-0.04636989974975586	-0.060337501525878905	0.9865789794921875	-0.03674860000610351	-0.03926050186157227	1.00097998046875	-0.03579629898071289	-0.024205699920654297	1.0258199462890625	-0.03660520172119141	0.006082399845123291	1.0466199951171875	-0.026826400756835938	0.000799865007400512	1.01622998046875	-0.010550100326538086	0.005461669921875	1.0070999755859376	-0.008285360336303711	0.008091259956359863	0.9844719848632812	-0.045722801208496096	0.001218639969825744	0.9888519897460938	-0.023800399780273436	0.015930700302124023	1.0248499755859375	-0.0125826997756958	0.022507999420166017	1.01752001953125	-0.007047560214996338	0.030012399673461913	0.9929349975585937	-0.04699549865722656	0.025615900039672852	0.9866279907226563	-0.03218190002441406	0.028905399322509767	1.03275	-0.017975500106811523	0.03770809936523437	1.0258499755859376	-0.01214560031890869	0.04828820037841797	1.0053400268554689	-0.049446800231933596	0.04595819854736328	0.995573974609375	-0.03538449859619141	0.042496601104736326	1.0382900390625	-0.02171689987182617	0.051017601013183596	1.032969970703125	-0.019878700256347658	0.06075579833984375	1.0181300048828126	-0.04934299850463867	0.061290401458740235	1.009239990234375	-0.058864299774169924	0.02940959930419922	1.061780029296875
27	0.9	-0.04612099838256836	-0.06030009841918945	0.9866900024414063	-0.03655039978027344	-0.03927030181884766	1.0010800170898437	-0.03561800003051758	-0.024237400054931642	1.0258399658203126	-0.03643740081787109	0.006096250057220459	1.046699951171875	-0.026811899185180663	0.0007817149758338921	1.016260009765625	-0.010508600234985352	0.005470839977264405	1.0071500244140625	-0.008191789627075195	0.008128040313720703	0.9845880126953125	-0.04558409881591797	0.001240239977836608	0.9890289916992188	-0.023570600509643554	0.015976099967956542	1.0250400390625	-0.012419599533081055	0.02250699996948242	1.0176400146484375	-0.006997270107269287	0.029989200592041014	0.9926420288085938	-0.04690520095825195	0.02563279914855957	0.9867880249023437	-0.03191180038452148	0.02889310073852539	1.0328299560546874	-0.017857500076293945	0.03777059936523437	1.0259100341796874	-0.012000300407409669	0.048311901092529294	1.0054000244140624	-0.049376800537109376	0.04598759841918945	0.9958579711914063	-0.035037899017333986	0.04255500030517578	1.0388599853515625	-0.021561100006103517	0.05097549819946289	1.0331700439453124	-0.019753900527954102	0.06071829986572266	1.0184099731445313	-0.049240200042724606	0.061310699462890625	1.0094000244140624	-0.058692001342773435	0.029451900482177735	1.061949951171875
28	0.9333333333333333	-0.0459906005859375	-0.06021540069580078	0.9866589965820313	-0.0364026985168457	-0.03917399978637695	1.0010800170898437	-0.03552069854736328	-0.02414859962463379	1.0259200439453124	-0.036347999572753906	0.006179299831390381	1.046760009765625	-0.026659900665283204	0.000867726981639862	1.0164500122070312	-0.010357099533081055	0.005560299873352051	1.0070599975585937	-0.008068349838256836	0.008249939918518067	0.9845150146484375	-0.045449199676513674	0.001321490049362182	0.9890679931640625	-0.023491600036621093	0.016003900527954102	1.0249599609375	-0.012272700309753418	0.022599599838256837	1.0175800170898437	-0.006852650165557862	0.030063400268554686	0.9927730102539063	-0.0467661018371582	0.025712099075317383	0.9867849731445313	-0.031812700271606445	0.029005399703979494	1.03302001953125	-0.017712099075317383	0.03778469848632812	1.026050048828125	-0.011873800277709961	0.04839120101928711	1.0055800170898437	-0.049208698272705076	0.04601679992675781	0.9957449951171875	-0.034828098297119144	0.04270029830932617	1.0386400146484376	-0.021400800704956056	0.051068500518798826	1.033050048828125	-0.019579999923706053	0.06083570098876953	1.01827001953125	-0.049129100799560545	0.06135829925537109	1.009489990234375	-0.05855860137939453	0.029579000473022463	1.0621400146484374
